<?xml version="1.0" encoding="utf-8"?>
<!-- Generator: Adobe Illustrator 23.0.2, SVG Export Plug-In . SVG Version: 6.00 Build 0)  -->
<svg version="1.1" id="Layer_1" xmlns="http://www.w3.org/2000/svg" xmlns:xlink="http://www.w3.org/1999/xlink" x="0px" y="0px"
	 viewBox="0 0 100.3 104.6" style="enable-background:new 0 0 100.3 104.6;" xml:space="preserve">
<style type="text/css">
	.st0{fill:#FFFFFF;}
	.st1{fill:#F04141;}
	.st2{fill:#FFCD0F;}
	.st3{fill:#F57391;}
	.st4{fill:#149687;}
	.st5{fill:#50C8E1;}
	.st6{fill:#A5C83C;}
	.st7{fill:#005596;}
</style>
<title>skillpod-logo-head</title>
<path class="st0" d="M66.6,58.5c0,0.6-0.1,1.2-0.2,1.8c-1,6.6-2.2,13.3-3.4,19.8l-0.3,1.7c-0.2,1-0.6,1.9-1.3,2.6l-5.9,6.2
	c-1.2,1.3-2.8,2-4.6,2h-1.3c-1.7,0-3.3-0.7-4.5-1.8l-6.4-6.5c-0.7-0.7-1.2-1.7-1.4-2.7l-0.3-1.7c-0.7-4.1-1.5-8.1-2.2-12.2
	c-0.2-0.8-0.3-1.7-0.5-2.5c-0.7-3.5-1.3-6.8-0.9-9.7c1.4-9.1,9.9-15.4,19-14c0.6,0.1,1.2,0.2,1.8,0.4C61.8,43.9,66.9,50.8,66.6,58.5
	z M78.3,61.8c0.1-0.9,0.2-1.9,0.3-2.8c0.8-15.8-11.4-29.2-27.2-30C36.5,28.2,23.6,39,21.6,53.8c-0.4,2.7-0.4,5.3,0,8
	c-3.7,0.4-6.3,3.8-5.9,7.5c0.4,3.4,3.3,6,6.8,5.9c0.5,0,1,0,1.5-0.1l1.3,7l0.3,1.6c0.6,3.5,2.2,6.7,4.7,9.1l6.4,6.4
	c3.4,3.4,8.1,5.4,13,5.4H51c5,0,9.8-2.1,13.3-5.7l5.9-6.2c2.3-2.4,3.9-5.5,4.4-8.8l0.3-1.6c0.4-2.3,0.8-4.7,1.3-7.1
	c0.5,0.1,1,0.2,1.5,0.2c3.7,0,6.8-3,6.8-6.7C84.5,65,81.9,62.1,78.3,61.8"/>
<rect x="45.6" class="st1" width="9.8" height="19.8"/>
<rect x="61.4" y="11.6" transform="matrix(0.3461 -0.9382 0.9382 0.3461 28.6278 74.1455)" class="st2" width="12.3" height="9.8"/>
<rect x="86.4" y="35" transform="matrix(0.8927 -0.4506 0.4506 0.8927 -8.0698 45.9973)" class="st3" width="12.3" height="9.8"/>
<rect x="75" y="18.7" transform="matrix(0.7072 -0.707 0.707 0.7072 8.1775 66.9661)" class="st4" width="19.8" height="9.8"/>
<rect x="28" y="11.1" transform="matrix(0.9382 -0.3461 0.3461 0.9382 -3.982 12.4645)" class="st5" width="9.8" height="12.6"/>
<rect x="2.9" y="34.6" transform="matrix(0.4507 -0.8927 0.8927 0.4507 -32.2213 29.4187)" class="st6" width="9.8" height="12.5"/>
<rect x="10.5" y="14.5" transform="matrix(0.7071 -0.7071 0.7071 0.7071 -12.8175 18.0968)" class="st7" width="9.8" height="20"/>
</svg>
