<?xml version="1.0" encoding="utf-8"?>
<!-- Generator: Adobe Illustrator 23.0.2, SVG Export Plug-In . SVG Version: 6.00 Build 0)  -->
<svg version="1.1" id="Layer_1" xmlns="http://www.w3.org/2000/svg" xmlns:xlink="http://www.w3.org/1999/xlink" x="0px" y="0px"
	 viewBox="0 0 100 100" style="enable-background:new 0 0 100 100;" xml:space="preserve">
<title>chapters</title>
<path d="M69.6,0H21.2c-3.9,0-7,3.1-7,7v86c0,3.9,3.1,7,7,7H82c3.9,0,7-3.1,7-7V18.9c0-1.4-0.6-2.7-1.5-3.6L73.1,1.4
	C72.1,0.5,70.9,0,69.6,0z M79,87c0,1.7-1.3,3-3,3H27.2c-1.7,0-3-1.3-3-3V13c0-1.7,1.3-3,3-3h34.5v11.7c0,2.8,2.2,5,5,5l0,0H79V87z"
	/>
</svg>
