<?xml version="1.0" encoding="utf-8"?>
<!-- Generator: Adobe Illustrator 23.0.2, SVG Export Plug-In . SVG Version: 6.00 Build 0)  -->
<svg version="1.1" id="Layer_1" xmlns="http://www.w3.org/2000/svg" xmlns:xlink="http://www.w3.org/1999/xlink" x="0px" y="0px"
	 viewBox="0 0 192 192" style="enable-background:new 0 0 192 192;" xml:space="preserve">
<style type="text/css">
	.st0{fill:#FFFFFF;}
</style>
<title>dashboard</title>
<path class="st0" d="M86.7,184.6H47.4c-25.9,0-47-21.1-47-47V54.5c0-25.9,21.1-47,47-47h39.3c25.9,0,47,21.1,47,47v83.1
	C133.7,163.5,112.7,184.5,86.7,184.6z M47.4,29.5c-13.8,0-25,11.2-25,25l0,0v83.1c0,13.8,11.2,25,25,25h39.3c13.8,0,25-11.2,25-25
	V54.5c0-13.8-11.2-25-25-25l0,0H47.4z"/>
<path class="st0" d="M157.6,33.5h-8.6c-2.8,0-5,2.2-5,5v10c0,2.8,2.2,5,5,5h8.6c7.7,0,14,6.3,14,14v56.9c0,7.7-6.3,14-14,14h-8.6
	c-2.8,0-5,2.2-5,5v10c0,2.8,2.2,5,5,5h8.6c18.8,0,34-15.2,34-34V67.5C191.6,48.8,176.4,33.5,157.6,33.5z"/>
</svg>
