<?xml version="1.0" encoding="utf-8"?>
<!-- Generator: Adobe Illustrator 23.0.2, SVG Export Plug-In . SVG Version: 6.00 Build 0)  -->
<svg version="1.1" id="Layer_1" xmlns="http://www.w3.org/2000/svg" xmlns:xlink="http://www.w3.org/1999/xlink" x="0px" y="0px"
	 viewBox="0 0 192 192" style="enable-background:new 0 0 192 192;" xml:space="preserve">
<style type="text/css">
	.st0{fill:#FFFFFF;}
</style>
<title>portfolio</title>
<path class="st0" d="M127.1,89.5c18.5-17.2,19.6-46.1,2.4-64.6S83.4,5.3,64.9,22.5s-19.6,46.1-2.4,64.6c0.8,0.8,1.6,1.6,2.4,2.4
	c-4.8,2.7-9.2,6.1-13.1,10c-11.8,11.7-18.4,27.6-18.3,44.3c0,17.1,7.1,28.4,21.1,33.8c10.2,3.9,23,4.1,36.6,4.1h7.3
	c14.5,0,28.3,0,39.1-4.1c14-5.4,21.1-16.8,21.1-33.8l0,0C158.6,121.3,146.5,100.6,127.1,89.5z M70.8,56c0-13.9,11.3-25.1,25.2-25.1
	c13.9,0,25.1,11.3,25.1,25.2c0,13.9-11.3,25.1-25.2,25.1C82.1,81.2,70.8,69.9,70.8,56z M130.1,158.4c-7.2,2.8-19.1,2.8-31.7,2.8h-5
	c-12.6,0-24.4,0-31.6-2.8c-4-1.5-7.9-3.9-7.9-14.6c0-23.2,18.8-42,42-42l0,0c23.2,0,42,18.8,42,42
	C138,154.4,134.1,156.9,130.1,158.4L130.1,158.4z"/>
</svg>
